<?xml version="1.0" encoding="utf-8"?>
<!-- Generator: Adobe Illustrator 23.0.6, SVG Export Plug-In . SVG Version: 6.00 Build 0)  -->
<svg version="1.1" id="Layer_1" xmlns="http://www.w3.org/2000/svg" xmlns:xlink="http://www.w3.org/1999/xlink" x="0px" y="0px"
	 viewBox="0 0 171 141" style="enable-background:new 0 0 171 141;" xml:space="preserve">
<style type="text/css">
	.st0{fill:url(#SVGID_1_);}
	.st1{fill:url(#SVGID_2_);}
	.st2{opacity:0.81;fill:url(#SVGID_3_);}
	.st3{opacity:0.7;fill:url(#SVGID_4_);}
	.st4{opacity:0.49;}
	.st5{fill:#FFFFFF;}
	.st6{opacity:0.58;}
	.st7{fill:#000E73;}
	.st8{fill:url(#SVGID_5_);}
	.st9{fill:none;stroke:#21008F;stroke-width:0.25;stroke-miterlimit:1;}
	.st10{fill:#0D003B;}
	.Navy_x0020_Subtle_x0020_Highlight{fill:url(#SVGID_6_);stroke:#FFFFFF;stroke-width:0.25;stroke-miterlimit:1;}
	.Half_x0020_Highlight_x0020_Blue{fill:url(#SVGID_7_);stroke:#FFFFFF;stroke-width:0.25;stroke-miterlimit:1;}
	.st11{fill:#4D2286;}
</style>
<symbol  id="Globe" viewBox="-12.36 -13.02 24.76 26.01">
	<g>
		
			<linearGradient id="SVGID_1_" gradientUnits="userSpaceOnUse" x1="0.188" y1="-12.375" x2="0.188" y2="12.375" gradientTransform="matrix(1 0 0 1 -0.1626 0)">
			<stop  offset="0" style="stop-color:#0017B8"/>
			<stop  offset="0.618" style="stop-color:#001390"/>
			<stop  offset="0.6292" style="stop-color:#000EA6"/>
			<stop  offset="0.9831" style="stop-color:#00629E"/>
		</linearGradient>
		<circle class="st0" cx="0.03" cy="0" r="12.37"/>
		
			<linearGradient id="SVGID_2_" gradientUnits="userSpaceOnUse" x1="0.188" y1="-12.375" x2="0.188" y2="12.375" gradientTransform="matrix(1 0 0 1 -0.1626 0)">
			<stop  offset="0" style="stop-color:#000F83;stop-opacity:0.22"/>
			<stop  offset="0.5" style="stop-color:#000D60"/>
			<stop  offset="0.5362" style="stop-color:#0C2F6C;stop-opacity:0.937"/>
			<stop  offset="0.5886" style="stop-color:#1A597A;stop-opacity:0.8459"/>
			<stop  offset="0.6439" style="stop-color:#267D87;stop-opacity:0.7497"/>
			<stop  offset="0.7016" style="stop-color:#309A91;stop-opacity:0.6492"/>
			<stop  offset="0.7625" style="stop-color:#38B199;stop-opacity:0.5432"/>
			<stop  offset="0.8281" style="stop-color:#3EC19F;stop-opacity:0.4291"/>
			<stop  offset="0.9017" style="stop-color:#41CBA2;stop-opacity:0.301"/>
			<stop  offset="1" style="stop-color:#42CEA3;stop-opacity:0.13"/>
		</linearGradient>
		<circle class="st1" cx="0.03" cy="0" r="12.37"/>
		
			<radialGradient id="SVGID_3_" cx="-1.0936" cy="8.3195" r="20.7954" gradientTransform="matrix(0.9996 -0.0276 0.0138 0.4998 -0.2777 4.1312)" gradientUnits="userSpaceOnUse">
			<stop  offset="0" style="stop-color:#638A98"/>
			<stop  offset="0.2751" style="stop-color:#5789A3;stop-opacity:0.901"/>
			<stop  offset="0.7444" style="stop-color:#3887BE;stop-opacity:0.732"/>
			<stop  offset="1" style="stop-color:#356EC7;stop-opacity:0.64"/>
		</radialGradient>
		<circle class="st2" cx="0.03" cy="0" r="12.37"/>
		
			<linearGradient id="SVGID_4_" gradientUnits="userSpaceOnUse" x1="0.188" y1="12.375" x2="0.188" y2="-12.375" gradientTransform="matrix(1 0 0 1 -0.1626 0)">
			<stop  offset="0" style="stop-color:#FFFFFF;stop-opacity:0.77"/>
			<stop  offset="0.45" style="stop-color:#FFFFFF;stop-opacity:0"/>
			<stop  offset="0.4541" style="stop-color:#F6F6F9;stop-opacity:1.180839e-03"/>
			<stop  offset="0.4762" style="stop-color:#C8CAD9;stop-opacity:7.628202e-03"/>
			<stop  offset="0.5012" style="stop-color:#9DA1BB;stop-opacity:0.0149"/>
			<stop  offset="0.528" style="stop-color:#777CA1;stop-opacity:0.0227"/>
			<stop  offset="0.5573" style="stop-color:#575D8B;stop-opacity:0.0312"/>
			<stop  offset="0.5896" style="stop-color:#3B4378;stop-opacity:0.0406"/>
			<stop  offset="0.626" style="stop-color:#252E69;stop-opacity:0.0512"/>
			<stop  offset="0.6686" style="stop-color:#141E5D;stop-opacity:0.0636"/>
			<stop  offset="0.7212" style="stop-color:#091255;stop-opacity:0.0789"/>
			<stop  offset="0.795" style="stop-color:#020C50;stop-opacity:0.1004"/>
			<stop  offset="1" style="stop-color:#000A4F;stop-opacity:0.16"/>
		</linearGradient>
		<circle class="st3" cx="0.03" cy="0" r="12.37"/>
		<g class="st4">
			<path class="st5" d="M0.03-11.27C-6.83-10.9-12.76-5.1-11.23,2.22c1.09,5.2,5.96,9.08,11.25,9.05c5.3-0.03,10.15-3.81,11.25-9.05
				C12.82-5.09,6.88-10.9,0.03-11.27c-0.01,0,0.01-0.5,0-0.5c14.94,0.81,15.27,23.48,0,23.54c-15.26,0.06-14.95-22.73,0-23.54
				C0.02-11.77,0.04-11.27,0.03-11.27z"/>
		</g>
		<g class="st6">
			<path class="st7" d="M12.4,0.6C12.04-6.14,7.01-11.75,0.03-11.75C-6.5-11.75-12.06-6.53-12.06,0c0,6.53,5.56,11.75,12.09,11.75
				c6.99,0,12.01-5.62,12.37-12.35C12.38-0.31,12.42,0.22,12.4,0.6C11.97,8.6,4.83,14.74-3.26,12.54c-5.71-1.55-9.1-6.8-9.1-12.54
				c0-5.51,3.09-10.58,8.47-12.37C4.33-15.1,11.96-8.8,12.4-0.6C12.42-0.23,12.38,0.31,12.4,0.6z"/>
		</g>
	</g>
	<g>
		<linearGradient id="SVGID_5_" gradientUnits="userSpaceOnUse" x1="0.0254" y1="-9.9608" x2="0.0254" y2="10.4619">
			<stop  offset="0" style="stop-color:#0017B8"/>
			<stop  offset="0.618" style="stop-color:#001390"/>
			<stop  offset="0.9831" style="stop-color:#00629E"/>
		</linearGradient>
		<path class="st8" d="M-11.59,0.61c1.1,0.9,1.28,2.05,1.77,3.32c0.54,1.39,1.56,1.78,1.16,3.48 M-11.42-2.2
			c1.08,0.97,1.08-0.67,2.11-0.59c0.79,0.06,2.5,0.76,2.59-0.58c0.05-0.71-0.62-2.19-1.14-2.48c-0.86-0.48-1.75,0.07-2.67,0.3
			 M6.86-9.11C6.81-7.32,8.67-8.08,8.67-6.28c0,2.4,0.35,2.66,2.67,3.17 M11.64-1.08C10.89-0.09,9.14-1,8.9,0.24
			c-0.27,1.41,2.12,1.52,2.24,2.71 M-4.29,10.46c0.42-0.04,0.74-0.82,1.4-0.89c0.97-0.1,2.19,0.07,3.09-0.4
			c0.63-0.33,2-4.12,1.65-4.17c0.4,0.06,0.53,2.16,0.93,2.51c0.84,0.74,2.12,0.23,1.85-0.89C4.38,5.64,4.26,4.57,3.23,4.27
			C2.67,4.05,1,3.51,0.67,2.92c-0.43-0.8,0.89-1.42,0.94-0.9c0.01,0.1-1.42,0.74-0.33,1.03c0.52-0.11,0.9-1.42,1.06-1.19
			c0.18,0.28-0.14,0.78,0.03,1.08C2.53,3.22,2.95,2.67,3,3.12C3.04,3.39,2.13,3.4,2.07,3.35c1.16,0.67,3.8,0.56,1.88-1.02
			C3.62,1.65,2.86,1.07,2.24,0.64C1.71-0.62,2.52-0.25,2.49-1.21C2.47-1.63,0.65-0.1,0.06-0.1c-0.46-0.31-0.37-1.23-0.2-1.65
			c0.43-1.02,1.8-0.62,2.67-0.85c2.11-0.55,2.39-1.61,0.71-3.1c-0.73-0.64-1.6-1.04-2.05-1.95C0.95-8.13,0.84-9.78,0.31-9.94
			c-1.41-0.43-1.52,5.15-1.44,5.85c0.04,0.54,0.21,1.03,0.5,1.48c-0.47,0.46-0.89,0.96-1.24,1.52C-1.91-1.03-2.58,0.42-2.81,0.2
			C-2.71-0.11-2.7-0.42-2.8-0.72c-0.29-0.06-0.86,6.15-1.11,6.85c-0.69,1.95-0.78,2.2-2.63,3.11"/>
		<g class="st4">
			<path class="st5" d="M0.18-6.74c-0.07,0.6-0.13,1.21-0.13,1.81c0,0.27,0,0.56,0.07,0.83C0.21-3.73,0.24-3.8,0.6-3.87
				c0.85-0.17,1.71-0.02,2.49-0.48c0,0.17,0,0.33,0,0.5C2.73-4.41,2.15-4.79,1.63-5.19C1.05-5.63,0.55-6.11,0.18-6.74
				c-0.07-0.13,0.07-0.38,0-0.5c0.37,0.63,0.87,1.12,1.45,1.56c0.52,0.4,1.1,0.77,1.45,1.34c0.02,0.04,0.02,0.49,0,0.5
				c-0.6,0.36-1.23,0.35-1.9,0.4c-0.24,0.02-0.48,0.09-0.71,0.1C0.15-3.33,0.2-3.27,0.12-3.6C0.06-3.81,0.05-4.03,0.04-4.24
				c-0.04-1,0.03-2.01,0.14-3C0.16-7.08,0.2-6.91,0.18-6.74z"/>
			<path class="st5" d="M-8.51-4.6c-0.07,0.05-0.32,0.03-0.41,0.05c-0.13,0.03-0.53,0.1-0.62,0.2c-0.1,0.12-0.12,0.47-0.17,0.62
				c0-0.17,0-0.33,0-0.5c0.59-0.07,1.15,0.1,1.73,0.19c0,0.17,0,0.33,0,0.5C-8.1-3.91-8.25-4.3-8.51-4.6c-0.08-0.1,0.08-0.41,0-0.5
				c0.26,0.3,0.41,0.69,0.53,1.07c0.02,0.05-0.02,0.5,0,0.5c-0.58-0.09-1.14-0.26-1.73-0.19c0.01,0-0.01-0.45,0-0.5
				c0.04-0.16,0.06-0.5,0.17-0.62C-9.45-4.95-9.13-4.99-9-5.03c0.12-0.03,0.4-0.01,0.49-0.07C-8.58-5.05-8.43-4.65-8.51-4.6z"/>
			<path class="st5" d="M-1.21,0.48c-0.18,0.29-0.64,0.67-0.78,0.96C-2.17,1.79-2.13,2.41-2.18,2.8C-2.29,3.69-2.4,4.58-2.53,5.47
				C-2.7,6.65-3.04,7.76-3.66,8.8c0-0.17,0-0.33,0-0.5c0.91-0.33,2.38,0.15,3.17-0.38C-0.02,7.6,0.34,6.15,0.5,5.66
				c0.43-1.38-0.07-0.13,0.8,0.17c0.63,0.22,0.46-0.52,0.54-1.05c0,0.17,0,0.33,0,0.5C0.6,4.76-0.55,4.17-0.62,2.69
				C-0.65,1.97-0.4,1.36,0.13,0.85c0,0.17,0,0.33,0,0.5C-0.52,1.35-0.83,1.03-1.21,0.48c-0.08-0.11,0.08-0.39,0-0.5
				c0.37,0.54,0.69,0.88,1.34,0.87c-0.02,0,0.03,0.47,0,0.5c-0.45,0.44-0.65,0.83-0.74,1.46c0-0.17,0-0.33,0-0.5
				c0.16,1.42,1.24,1.96,2.45,2.47c0.03,0.01,0.01,0.45,0,0.5C1.76,5.83,1.95,6.56,1.3,6.33C0.42,6.02,0.93,4.76,0.5,6.16
				C0.32,6.72,0,8.06-0.48,8.42C-1.22,8.96-2.76,8.48-3.66,8.8c0.04-0.02-0.03-0.44,0-0.5c0.61-1.04,0.95-2.15,1.13-3.33
				c0.12-0.8,0.21-1.6,0.31-2.4c0.05-0.4,0.04-1.27,0.22-1.63c0.15-0.31,0.59-0.64,0.78-0.96C-1.28,0.09-1.13,0.35-1.21,0.48z"/>
		</g>
		<path class="st9" d="M-11.59,0.61c1.1,0.9,1.28,2.05,1.77,3.32c0.54,1.39,1.56,1.78,1.16,3.48 M-11.42-2.2
			c1.08,0.97,1.08-0.67,2.11-0.59c0.79,0.06,2.5,0.76,2.59-0.58c0.05-0.71-0.62-2.19-1.14-2.48c-0.86-0.48-1.75,0.07-2.67,0.3
			 M6.86-9.11C6.81-7.32,8.67-8.08,8.67-6.28c0,2.4,0.35,2.66,2.67,3.17 M11.64-1.08C10.89-0.09,9.14-1,8.9,0.24
			c-0.27,1.41,2.12,1.52,2.24,2.71 M-4.29,10.46c0.42-0.04,0.74-0.82,1.4-0.89c0.97-0.1,2.19,0.07,3.09-0.4
			c0.63-0.33,2-4.12,1.65-4.17c0.4,0.06,0.53,2.16,0.93,2.51c0.84,0.74,2.12,0.23,1.85-0.89C4.38,5.64,4.26,4.57,3.23,4.27
			C2.67,4.05,1,3.51,0.67,2.92c-0.43-0.8,0.89-1.42,0.94-0.9c0.01,0.1-1.42,0.74-0.33,1.03c0.52-0.11,0.9-1.42,1.06-1.19
			c0.18,0.28-0.14,0.78,0.03,1.08C2.53,3.22,2.95,2.67,3,3.12C3.04,3.39,2.13,3.4,2.07,3.35c1.16,0.67,3.8,0.56,1.88-1.02
			C3.62,1.65,2.86,1.07,2.24,0.64C1.71-0.62,2.52-0.25,2.49-1.21C2.47-1.63,0.65-0.1,0.06-0.1c-0.46-0.31-0.37-1.23-0.2-1.65
			c0.43-1.02,1.8-0.62,2.67-0.85c2.11-0.55,2.39-1.61,0.71-3.1c-0.73-0.64-1.6-1.04-2.05-1.95C0.95-8.13,0.84-9.78,0.31-9.94
			c-1.41-0.43-1.52,5.15-1.44,5.85c0.04,0.54,0.21,1.03,0.5,1.48c-0.47,0.46-0.89,0.96-1.24,1.52C-1.91-1.03-2.58,0.42-2.81,0.2
			C-2.71-0.11-2.7-0.42-2.8-0.72c-0.29-0.06-0.86,6.15-1.11,6.85c-0.69,1.95-0.78,2.2-2.63,3.11"/>
		<g class="st6">
			<path class="st10" d="M-11.59-0.01c0.79,0.73,1.15,1.58,1.5,2.58c0.34,0.96,0.96,1.72,1.33,2.64c0.34,0.83,0.25,1.98,0.1,2.84
				c0.07-0.4-0.07-0.84,0-1.25C-8.62,6.53-8.6,6.26-8.57,6c0,0.41,0,0.82,0,1.23C-8.7,6.15-9.5,5.37-9.89,4.37
				c-0.46-1.18-0.74-2.25-1.7-3.13C-11.8,1.04-11.39,0.17-11.59-0.01L-11.59-0.01z"/>
			<path class="st10" d="M-11.42-2.83c0.99,0.79,1.24-0.66,2.25-0.58C-8.32-3.34-6.9-2.72-6.72-4c0,0.36,0,0.71,0,1.07
				c-0.01-0.69-0.44-1.69-0.95-2.15c-0.8-0.73-1.99-0.09-2.86,0.15c0.1-0.03-0.12-1.22,0-1.25C-9.75-6.4-8.81-6.91-8-6.54
				c0.57,0.26,0.86,0.94,1.07,1.49c0.26,0.7,0.3,1.56,0.21,2.3c-0.15,1.24-1.55,0.71-2.37,0.61c-1.05-0.13-1.34,1.35-2.33,0.56
				C-11.63-1.74-11.23-2.67-11.42-2.83L-11.42-2.83z"/>
			<path class="st10" d="M6.86-9.71C6.9-8.68,7.47-8.64,8.14-8.08c0.47,0.39,0.51,0.84,0.54,1.42c0.03,0.7-0.02,1.56,0.51,2.11
				c0.53,0.54,1.46,0.66,2.15,0.82c0.1,0.02-0.08,1.23,0,1.25c-0.7-0.16-1.62-0.27-2.15-0.82C8.7-3.81,8.72-4.55,8.68-5.2
				C8.62-6.01,8.6-6.5,7.91-6.98C7.26-7.42,6.89-7.66,6.86-8.51C6.85-8.88,6.87-9.42,6.86-9.71L6.86-9.71z"/>
			<path class="st10" d="M11.64-0.46c-0.75,0.85-2.59,0.12-2.76,1.48c0-0.39,0-0.78,0-1.16c0.02,1.27,2.04,1.26,2.26,2.47
				c0.07,0.4-0.07,0.85,0,1.25C11,2.81,10.18,2.53,9.61,2.14C9.05,1.75,8.88,1.37,8.87,0.71c0-0.57-0.14-1.36,0.45-1.69
				c0.76-0.43,1.66,0.01,2.31-0.73C11.44-1.48,11.85-0.7,11.64-0.46L11.64-0.46z"/>
			<path class="st10" d="M-4.29,9.84c1.49-1.06,3.49-0.43,4.75-1.55c0.82-0.73,1.25-2.66,1.44-3.72c0,0.42,0,0.83,0,1.25
				C1.88,5.76,1.86,5.7,1.84,5.64c-0.1-0.32,0.18-0.99,0-1.25C2.27,5,2.17,6.48,2.77,6.89C3.8,7.6,4.52,7.12,4.61,6
				c0,0.42,0,0.83,0,1.25c-0.63-2.62-3.2-2.06-3.94-4.02C0.41,2.54,0.62,0.91,1.61,1.39c0.04,0.02,0.05,1.21,0,1.25
				C1.29,2.9,1.06,3.04,0.87,3.4c0-0.42,0-0.83,0-1.25C1.72,2.72,1.75,1.7,2.34,1.24c0,0.01,0,0.01,0,0.02
				C2.36,1.84,2.48,2.21,3,2.49c0.05,0.02,0.04,1.23,0,1.25C2.73,3.98,2.42,4.06,2.07,3.98c0-0.42,0-0.83,0-1.25
				c0.86,0.34,1.66,0.59,2.51,0.1c0,0.41,0,0.82,0,1.23C4.51,2.37,2.2,1.75,2.07-0.02C2.01-0.77,2.29-1.09,2.49-1.83
				c0,0.42,0,0.83,0,1.25C1.2-0.88-0.33,1.53-0.29-1.05c0.05-3.22,3.98-1.04,4.61-3.7c0,0.42,0,0.83,0,1.25
				C3.72-4.94,2.27-5.4,1.48-6.64C1.17-7.12,0.86-9.2,0.31-9.31C-1.54-9.69-1-3.98-0.63-3.23c0.06,0.13,0.09,1.15,0,1.25
				c-0.74,0.8-1.29,2.22-2.18,2.81c0.08-0.05-0.01-0.94,0-1.07c0-0.31,0.01-0.62,0.01-0.92c0,0.36,0,0.71,0,1.07
				c-0.82,1.14-0.63,3.79-0.82,5.11c-0.33,2.24-0.81,3.73-2.91,4.85c0.17-0.09-0.18-1.15,0-1.25c2.09-1.11,2.58-2.61,2.91-4.85
				c0.2-1.37,0-3.96,0.82-5.11c-0.11,0.16,0.01,0.86,0,1.07c0,0.31-0.01,0.62-0.01,0.92c0-0.36,0-0.71,0-1.07
				c0.83-0.55,1.48-2.05,2.18-2.81c0,0.42,0,0.83,0,1.25c-0.56-1.16-0.55-2.2-0.52-3.44c0.02-0.99,0.03-2.04,0.24-3.02
				c0.43-2.01,0.62-2.47,1.77-1.1c0.4,0.48,0.43,1.45,0.91,2.03C2.5-6.61,3.73-6.3,4.17-5.12c0.14,0.38,0.17,0.59,0.16,0.99
				C4.27-1.01,0.17-2.98-0.28-0.26c0-0.42,0-0.83,0-1.25c0.81,1.87,1.47-0.62,2.77-0.32c0.04,0.01,0.03,1.15,0,1.25
				C2.45-0.2,2.31,0.14,2.08,0.44c0-0.42,0-0.83,0-1.25c0.29,1.48,2.45,2.12,2.5,3.66c0.01,0.15,0.1,1.17,0,1.23
				c-0.84,0.49-1.64,0.24-2.51-0.1c-0.08-0.03,0.04-1.25,0-1.25c0.35,0.08,0.66,0,0.93-0.24c0,0.42,0,0.83,0,1.25
				c-0.19-0.15-0.4-0.21-0.63-0.17c0-0.01,0-0.01,0-0.02C2.32,1.81,1.76,3.99,0.87,3.4c-0.07-0.05-0.05-1.15,0-1.25
				c0.19-0.37,0.42-0.51,0.74-0.76c0,0.42,0,0.83,0,1.25C1.07,2.23,0.76,2.53,0.68,3.52c0-0.41,0-0.82,0-1.23
				c1.69,1.6,4.12,1.47,3.95,4.42C4.6,7,4.68,7.8,4.56,7.97c-1.6,2.11-2.26-1.68-2.72-2.33c0-0.42,0-0.83,0-1.25
				C1.96,4.78,1.98,5.41,1.9,5.81C1.66,6.85,1.36,8.47,0.61,9.28c-1.23,1.33-3.36,0.72-4.91,1.81C-4.1,10.95-4.5,9.98-4.29,9.84
				L-4.29,9.84z"/>
		</g>
	</g>
</symbol>
<linearGradient id="SVGID_6_" gradientUnits="userSpaceOnUse" x1="-58" y1="-83" x2="-58" y2="-84">
	<stop  offset="0" style="stop-color:#0017B8"/>
	<stop  offset="0.618" style="stop-color:#001390"/>
	<stop  offset="0.9831" style="stop-color:#00629E"/>
</linearGradient>
<linearGradient id="SVGID_7_" gradientUnits="userSpaceOnUse" x1="-58" y1="-83" x2="-58" y2="-84">
	<stop  offset="0" style="stop-color:#0017B8"/>
	<stop  offset="0.618" style="stop-color:#001390"/>
	<stop  offset="0.6292" style="stop-color:#000EA6"/>
	<stop  offset="0.9831" style="stop-color:#00629E"/>
</linearGradient>
<path class="st11" d="M22.57,79.4c1.45,1.03,2.18,2.16,2.18,3.39c0,0.53-0.18,1.02-0.55,1.47c-0.37,0.45-0.94,0.68-1.71,0.68
	c-0.56,0-1.05-0.19-1.48-0.58c-0.42-0.38-0.73-0.95-0.93-1.68l-0.29-1.15c-0.21-0.85-0.57-1.45-1.08-1.8
	c-0.53-0.34-1.23-0.5-2.09-0.5c-1.83,0-3.37,0.8-4.63,2.4c-1.26,1.6-1.89,3.72-1.89,6.37c0,2.42,0.69,4.6,2.08,6.52
	s3.26,2.89,5.62,2.89c1.67,0,3.15-0.55,4.45-1.64c0.74-0.63,1.57-1.62,2.5-2.99l0.67,0.41c-0.91,1.93-1.88,3.45-2.89,4.57
	c-1.94,2.15-4.18,3.23-6.73,3.23c-2.5,0-4.71-0.99-6.64-2.96C7.24,96.06,6.28,93.39,6.28,90c0-3.32,1.05-6.17,3.15-8.56
	s4.75-3.58,7.96-3.58C19.39,77.86,21.12,78.37,22.57,79.4z"/>
<path class="st11" d="M27.22,99.74c1.47-0.13,2.45-0.39,2.93-0.78c0.48-0.39,0.72-1.23,0.72-2.51V85.6c0-1.59-0.15-2.72-0.44-3.4
	s-0.84-1.02-1.62-1.02c-0.16,0-0.37,0.02-0.64,0.06c-0.26,0.04-0.54,0.09-0.83,0.16V80.6c0.91-0.32,1.84-0.65,2.81-0.99
	c0.96-0.34,1.62-0.58,1.99-0.72c0.8-0.3,1.62-0.65,2.47-1.03c0.11,0,0.18,0.04,0.2,0.12c0.02,0.08,0.04,0.25,0.04,0.5v3.94
	c1.03-1.43,2.02-2.54,2.98-3.34s1.95-1.2,2.98-1.2c0.82,0,1.49,0.24,2,0.73c0.52,0.49,0.77,1.1,0.77,1.84c0,0.66-0.2,1.21-0.59,1.66
	c-0.39,0.45-0.89,0.67-1.48,0.67c-0.61,0-1.22-0.28-1.84-0.84c-0.62-0.56-1.1-0.84-1.45-0.84c-0.56,0-1.25,0.45-2.07,1.36
	c-0.82,0.91-1.23,1.84-1.23,2.8v10.85c0,1.38,0.32,2.34,0.96,2.87c0.64,0.54,1.71,0.79,3.2,0.76v0.79H27.22V99.74z"/>
<path class="st11" d="M48.7,89.93c1.47-0.96,4.42-2.27,8.83-3.92v-2.04c0-1.64-0.16-2.77-0.48-3.41c-0.55-1.07-1.68-1.61-3.39-1.61
	c-0.82,0-1.6,0.21-2.33,0.63c-0.74,0.43-1.11,1.03-1.11,1.78c0,0.19,0.04,0.52,0.12,0.97s0.12,0.75,0.12,0.88
	c0,0.9-0.3,1.52-0.89,1.88c-0.34,0.21-0.74,0.31-1.2,0.31c-0.72,0-1.27-0.24-1.66-0.71c-0.38-0.47-0.58-1-0.58-1.58
	c0-1.12,0.69-2.3,2.08-3.52c1.39-1.23,3.42-1.84,6.1-1.84c3.11,0,5.22,1.01,6.32,3.03c0.59,1.11,0.89,2.72,0.89,4.83v9.64
	c0,0.93,0.06,1.57,0.19,1.92c0.21,0.63,0.64,0.94,1.3,0.94c0.37,0,0.67-0.06,0.91-0.17c0.24-0.11,0.66-0.38,1.25-0.82v1.25
	c-0.51,0.63-1.07,1.14-1.66,1.54c-0.9,0.61-1.81,0.91-2.74,0.91c-1.09,0-1.88-0.35-2.37-1.06s-0.76-1.55-0.81-2.52
	c-1.22,1.06-2.26,1.84-3.13,2.36c-1.46,0.87-2.85,1.3-4.16,1.3c-1.38,0-2.57-0.48-3.58-1.45c-1.01-0.97-1.51-2.2-1.51-3.69
	C45.21,93.43,46.37,91.49,48.7,89.93z M57.52,87.21c-1.84,0.61-3.37,1.28-4.57,2.02c-2.31,1.43-3.46,3.05-3.46,4.86
	c0,1.46,0.48,2.53,1.44,3.22c0.63,0.45,1.32,0.67,2.09,0.67c1.06,0,2.07-0.3,3.04-0.89s1.45-1.35,1.45-2.26V87.21z"/>
<path class="st11" d="M66.23,99.86c1.72-0.16,2.8-0.45,3.25-0.88s0.67-1.58,0.67-3.45V84.06c0-1.04-0.07-1.76-0.22-2.16
	c-0.24-0.66-0.75-0.99-1.51-0.99c-0.18,0-0.35,0.02-0.52,0.05c-0.17,0.03-0.65,0.16-1.45,0.38V80.6l1.03-0.34
	c2.81-0.91,4.76-1.6,5.87-2.07c0.45-0.19,0.74-0.29,0.87-0.29c0.03,0.11,0.05,0.23,0.05,0.36v17.27c0,1.83,0.22,2.97,0.66,3.44
	c0.44,0.46,1.44,0.76,2.99,0.89v0.67H66.23V99.86z M70.05,67.71c0.48-0.49,1.07-0.74,1.78-0.74c0.69,0,1.28,0.24,1.77,0.73
	c0.49,0.49,0.73,1.08,0.73,1.78c0,0.69-0.24,1.27-0.73,1.76c-0.49,0.49-1.08,0.73-1.77,0.73c-0.71,0-1.3-0.24-1.78-0.73
	s-0.72-1.07-0.72-1.76C69.33,68.79,69.57,68.2,70.05,67.71z"/>
<path class="st11" d="M83.5,89.88c-0.81-1.23-1.21-2.62-1.21-4.16c0-1.88,0.75-3.66,2.24-5.34s3.6-2.52,6.32-2.52
	c1.17,0,2.46,0.28,3.87,0.83s2.77,0.83,4.06,0.83c0.34,0,0.85-0.01,1.53-0.04s1.17-0.04,1.48-0.04h0.29v1.95h-4.16
	c0.29,0.67,0.51,1.26,0.67,1.76c0.27,0.93,0.41,1.81,0.41,2.65c0,1.83-0.76,3.51-2.27,5.04c-1.51,1.53-3.56,2.3-6.12,2.3
	c-0.4,0-1.12-0.07-2.16-0.22c-0.46,0-1.08,0.39-1.85,1.18c-0.77,0.79-1.15,1.43-1.15,1.92c0,0.51,0.56,0.89,1.69,1.13
	c0.74,0.16,1.56,0.24,2.46,0.24c4.12,0,6.93,0.23,8.4,0.7c2.42,0.75,3.64,2.37,3.64,4.86c0,2.53-1.41,4.55-4.24,6.06
	s-5.69,2.26-8.57,2.26c-2.63,0-4.71-0.53-6.25-1.6c-1.54-1.07-2.31-2.18-2.31-3.35c0-0.58,0.2-1.14,0.61-1.7
	c0.41-0.55,1.21-1.37,2.41-2.46l1.58-1.42l0.29-0.29c-0.73-0.29-1.28-0.57-1.65-0.84c-0.64-0.5-0.95-1.07-0.95-1.71
	c0-0.59,0.28-1.25,0.83-1.96c0.55-0.71,1.74-1.87,3.55-3.47C85.45,91.98,84.31,91.12,83.5,89.88z M86.05,107.77
	c1.51,0.51,3.25,0.77,5.21,0.77c2.66,0,4.83-0.46,6.49-1.38c1.67-0.92,2.5-2.06,2.5-3.4c0-1.07-0.67-1.79-2.02-2.14
	c-0.84-0.21-2.42-0.33-4.75-0.36c-0.6-0.02-1.22-0.04-1.88-0.06c-0.66-0.02-1.26-0.05-1.81-0.08c-0.35-0.02-0.93-0.08-1.71-0.19
	c-0.79-0.11-1.37-0.21-1.76-0.29c-0.19,0-0.66,0.5-1.41,1.51c-0.76,1.03-1.14,1.97-1.14,2.84
	C83.78,106.33,84.54,107.26,86.05,107.77z M93.69,91.25c0.96-0.77,1.44-2.11,1.44-4.02c0-1.52-0.39-3.24-1.17-5.15
	c-0.78-1.91-2.07-2.86-3.88-2.86c-1.57,0-2.65,0.75-3.25,2.24c-0.3,0.79-0.46,1.76-0.46,2.91c0,1.96,0.47,3.71,1.42,5.27
	c0.95,1.56,2.17,2.33,3.68,2.33C92.36,91.98,93.09,91.73,93.69,91.25z"/>
<path class="st11" d="M106.14,92.96h0.79c0.37,1.83,0.87,3.23,1.49,4.21c1.12,1.8,2.76,2.69,4.92,2.69c1.2,0,2.15-0.33,2.85-1
	c0.69-0.67,1.04-1.53,1.04-2.59c0-0.67-0.2-1.32-0.6-1.95c-0.4-0.63-1.11-1.23-2.12-1.83l-2.69-1.54c-1.97-1.06-3.42-2.12-4.35-3.2
	c-0.93-1.07-1.39-2.34-1.39-3.8c0-1.8,0.64-3.27,1.92-4.42s2.89-1.73,4.83-1.73c0.85,0,1.78,0.16,2.8,0.48
	c1.02,0.32,1.59,0.48,1.72,0.48c0.29,0,0.5-0.04,0.63-0.12c0.13-0.08,0.24-0.21,0.34-0.38h0.58l0.17,6.71h-0.75
	c-0.32-1.56-0.75-2.77-1.3-3.63c-0.99-1.6-2.43-2.4-4.3-2.4c-1.12,0-2,0.34-2.65,1.03s-0.96,1.5-0.96,2.43
	c0,1.47,1.11,2.79,3.32,3.94l3.17,1.71c3.41,1.86,5.12,4.02,5.12,6.49c0,1.89-0.71,3.44-2.12,4.64c-1.42,1.2-3.27,1.8-5.56,1.8
	c-0.96,0-2.05-0.16-3.26-0.48c-1.22-0.32-1.94-0.48-2.16-0.48c-0.19,0-0.36,0.07-0.5,0.2c-0.14,0.14-0.26,0.3-0.34,0.49h-0.63V92.96
	z"/>
<path class="st11" d="M107.7,36.86c1.49-0.14,2.5-0.44,3.03-0.9c0.53-0.46,0.79-1.35,0.79-2.68V9.79c0-1.06-0.09-1.79-0.26-2.19
	c-0.32-0.67-0.97-1.01-1.95-1.01c-0.22,0-0.47,0.02-0.73,0.07c-0.26,0.05-0.6,0.12-1,0.22V6.08c2.16-0.58,4.77-1.35,7.82-2.31
	c0.11,0,0.18,0.05,0.2,0.14c0.02,0.1,0.04,0.3,0.04,0.63v28.83c0,1.39,0.24,2.3,0.72,2.71s1.47,0.67,2.98,0.78v0.67H107.7V36.86z"/>
<path class="st11" d="M107.67,71.72c1.72-0.16,2.8-0.45,3.25-0.88c0.45-0.42,0.67-1.58,0.67-3.45V55.92c0-1.04-0.07-1.76-0.22-2.16
	c-0.24-0.66-0.75-0.99-1.51-0.99c-0.18,0-0.35,0.02-0.52,0.05c-0.17,0.03-0.65,0.16-1.45,0.38v-0.75l1.03-0.34
	c2.81-0.91,4.76-1.6,5.87-2.07c0.45-0.19,0.74-0.29,0.87-0.29c0.03,0.11,0.05,0.23,0.05,0.36v17.27c0,1.83,0.22,2.97,0.66,3.44
	c0.44,0.46,1.44,0.76,2.99,0.89v0.67h-11.69V71.72z"/>
<path class="st11" d="M118.94,112.36v1.73h-4.91l-0.05,13.85c0,1.22,0.1,2.14,0.31,2.77c0.38,1.11,1.14,1.66,2.26,1.66
	c0.58,0,1.08-0.14,1.5-0.41s0.91-0.71,1.45-1.3l0.63,0.53l-0.53,0.72c-0.83,1.12-1.72,1.92-2.65,2.38c-0.93,0.46-1.83,0.7-2.69,0.7
	c-1.89,0-3.17-0.84-3.85-2.52c-0.37-0.91-0.55-2.18-0.55-3.8V114.1h-2.62c-0.08-0.05-0.14-0.1-0.18-0.14s-0.06-0.11-0.06-0.19
	c0-0.16,0.04-0.28,0.11-0.37c0.07-0.09,0.3-0.29,0.69-0.61c1.11-0.91,1.9-1.66,2.39-2.22c0.49-0.57,1.64-2.07,3.45-4.51
	c0.21,0,0.33,0.02,0.37,0.05s0.06,0.15,0.06,0.36v5.92H118.94z"/>
<use xlink:href="#Globe"  width="24.76" height="26.01" x="-12.36" y="-13.02" transform="matrix(0.2718 0 0 -0.2691 113.3583 45.4965)" style="overflow:visible;"/>
<path class="st11" d="M159.78,125h-32.56c-1.77,0-3.22-1.45-3.22-3.22l0,0c0-1.77,1.45-3.22,3.22-3.22h32.56
	c1.77,0,3.22,1.45,3.22,3.22l0,0C163,123.55,161.55,125,159.78,125z"/>
<path class="st11" d="M159.78,92.81h-32.56c-1.77,0-3.22-1.45-3.22-3.22l0,0c0-1.77,1.45-3.22,3.22-3.22h32.56
	c1.77,0,3.22,1.45,3.22,3.22l0,0C163,91.36,161.55,92.81,159.78,92.81z"/>
<path class="st11" d="M159.78,60.62h-32.56c-1.77,0-3.22-1.45-3.22-3.22v0c0-1.77,1.45-3.22,3.22-3.22h32.56
	c1.77,0,3.22,1.45,3.22,3.22v0C163,59.18,161.55,60.62,159.78,60.62z"/>
<path class="st11" d="M159.78,28.44h-32.56c-1.77,0-3.22-1.45-3.22-3.22v0c0-1.77,1.45-3.22,3.22-3.22h32.56
	c1.77,0,3.22,1.45,3.22,3.22v0C163,26.99,161.55,28.44,159.78,28.44z"/>
</svg>
